<?xml version="1.0" encoding="UTF-8"?>
<svg id="Layer_1" data-name="Layer 1" xmlns="http://www.w3.org/2000/svg" viewBox="0 0 252.09 244.55">
<rect width="100%" height="100%" fill="#ffffff"/>
  <defs>
    <style>
      .cls-1 {
        fill: #fff;
      }

      .cls-2 {
        fill: #bf9b30;
      }
    </style>
  </defs>
  <path class="cls-1" d="M237.04,210.97L165.35,43.97c-1.27-2.97-3.41-5.41-6.18-7.07l-35.8-21.39c-2.02-1.21-4.34-1.85-6.7-1.85-1.29,0-2.58.19-3.81.57-3.52,1.08-6.44,3.61-8,6.94l-14.24,30.37c-6.47-1.4-13.35-2.1-20.52-2.1-31.93,0-56,13.83-56,32.17,0,2.68.53,5.32,1.59,7.88-1.05,2.18-1.59,4.57-1.59,7.01v14.31c0,2.51.5,5,1.45,7.3-.65,2.9-1.45,7.36-1.45,11.71v11.17c0,2.2.57,4.59,1.65,7.01-1.1,3-1.65,6.44-1.65,10.27v12.87c0,2.14.52,4.35,1.56,6.59-.81,2.67-1.56,6.59-1.56,11.97v9.9c0,5.22,3.04,13.13,11.57,19.67,10.07,7.71,25.02,11.62,44.43,11.62,47.09,0,54.61-22.01,55.81-29.41,8.28,5.22,18.95,11.81,25.04,15.07,11.55,6.18,23.03,10.9,56.29,10.9h18.95c3.99,0,7.67-1.99,9.87-5.31,2.19-3.33,2.56-7.5.99-11.16ZM126.09,168.45v-12.92c0-2.81-.37-5.42-1.11-7.8.75-2.08,1.12-4.18,1.11-6.26,0-1.74.02-3.6.05-5.55.13-8.13.1-14.05-1.21-18.52.13-.35.25-.71.36-1.06l22.36,52.11h-21.55Z"/>
  <path class="cls-2" d="M233.36,212.55L161.67,45.55c-.94-2.19-2.52-3.99-4.56-5.21l-35.8-21.39c-2.19-1.31-4.85-1.63-7.29-.89-2.44.75-4.46,2.5-5.55,4.81l-15.62,33.31c-6.84-1.76-14.55-2.74-22.76-2.74-29.16,0-52,12.37-52,28.17,0,2.81.74,5.51,2.09,8.05-1.34,2-2.09,4.36-2.09,6.84v14.31c0,2.44.57,4.77,1.66,6.87-.62,2.53-1.66,7.44-1.66,12.13v11.17c0,2,.67,4.37,2.05,6.86-1,2.11-2.05,5.49-2.05,10.42v12.87c0,1.97.65,4.1,1.89,6.27-.89,2.31-1.89,6.25-1.89,12.29v9.9c0,7.59,9.34,27.29,52,27.29,51.44,0,52.03-26.62,52.03-27.75v-4.78c8.39,5.34,23.16,14.64,30.7,18.67,11.05,5.91,22.07,10.43,54.4,10.43h18.95c2.64,0,5.08-1.31,6.53-3.52,1.45-2.2,1.7-4.96.66-7.38ZM70.09,61.45c25.93,0,44,10.63,44,20.17s-18.07,20.17-44,20.17-44-10.63-44-20.17,18.07-20.17,44-20.17ZM26.09,171.14v-12.87c0-1.13.08-2.12.19-2.99,7.92,7.01,21.88,13.14,43.13,13.14,19.17,0,35.23-4.52,44.68-12.49v13.77c0,6.82-13.62,20.19-45.11,20.19-28.14,0-42.89-13.94-42.89-18.76ZM26.09,96.82c9.13,7.85,25.26,12.97,44,12.97s34.87-5.12,44-12.97v14.53c0,5.07-10.83,19.78-44,19.78-28.18,0-39.31-11.44-42.78-16.36-.8-1.13-1.22-2.5-1.22-3.96v-14ZM26.09,129.82c0-1.39.12-2.83.29-4.2,7.4,6.58,20.66,13.52,43.71,13.52s36.34-6.17,44-13.14c.15,3.27.09,7.11.05,9.73-.03,2-.06,3.96-.05,5.8.01,2.09-1.28,4.54-3.63,6.91-7.47,7.51-22.81,11.99-41.05,11.99s-28.11-4.5-33.99-8.27c-6.8-4.36-9.33-9.17-9.33-11.17v-11.17ZM120.71,147.63c.92-2.03,1.39-4.09,1.38-6.14,0-1.79.02-3.7.05-5.63.13-8.62.08-14.7-1.48-18.58.98-2.19,1.43-4.22,1.43-5.92v-12.61l31.62,73.7h-31.92c.19-.92.29-1.83.29-2.73v-14.19c0-3.55-.7-6.18-1.38-7.89ZM70.09,218.88c-36.53,0-44-15.21-44-19.29v-9.9c0-1.96.13-3.6.31-4.96,8.6,7.16,23.45,13.17,42.57,13.17,20.24,0,32.71-5.11,39.61-9.39,2.06-1.28,3.91-2.66,5.54-4.11v14.73c0,.2-.5,19.75-44.03,19.75ZM207.23,215.45c-30.54,0-40.25-3.93-50.63-9.49-10.37-5.55-36.04-22.12-36.3-22.29l-3.33-2.15c.31-.36.61-.72.89-1.08h47.99l-44.59-103.94c-2.41-7.4-9.99-13.72-20.72-17.86l15.18-32.37c.16-.35.44-.5.65-.56.2-.06.52-.1.85.1l35.8,21.39c.59.35,1.04.87,1.31,1.5l71.58,166.74h-18.67Z"/>
</svg>